<?xml version="1.0" standalone="no"?>
<!DOCTYPE svg PUBLIC "-//W3C//DTD SVG 20010904//EN"
 "http://www.w3.org/TR/2001/REC-SVG-20010904/DTD/svg10.dtd">
<svg version="1.0" xmlns="http://www.w3.org/2000/svg"
 width="512.000000pt" height="512.000000pt" viewBox="0 0 512.000000 512.000000"
 preserveAspectRatio="xMidYMid meet">

<g transform="translate(0.000000,512.000000) scale(0.100000,-0.100000)"
fill="#000000" stroke="none">
<path d="M4145 3490 c-253 -55 -449 -163 -635 -350 -120 -120 -187 -224 -233
-360 -44 -132 -49 -300 -8 -300 5 0 14 30 20 66 69 391 433 756 871 871 125
33 338 38 440 9 265 -73 392 -268 377 -581 -9 -190 -67 -369 -183 -563 -173
-291 -385 -492 -589 -560 -150 -51 -338 -49 -451 2 -203 93 -290 356 -215 648
87 338 330 608 630 698 83 26 186 24 240 -5 26 -13 31 -13 31 -1 0 16 -48 59
-90 81 -48 25 -155 37 -234 26 -326 -46 -595 -282 -691 -606 -20 -67 -28 -121
-32 -211 -11 -248 47 -415 196 -565 121 -121 233 -164 426 -163 132 1 249 30
390 99 253 122 493 367 615 628 128 273 130 610 5 823 -16 27 -63 83 -105 125
-63 63 -94 85 -171 122 -133 64 -198 78 -369 83 -117 3 -162 0 -235 -16z"/>
<path d="M1058 3473 c-10 -2 -35 -37 -55 -76 -46 -88 -176 -227 -259 -277 -31
-19 -87 -42 -123 -51 -109 -28 -90 -60 25 -40 89 16 163 45 232 91 31 21 58
36 59 32 2 -4 -19 -81 -46 -171 l-49 -163 -204 -207 c-340 -343 -571 -630
-619 -767 -50 -142 11 -244 138 -231 137 14 252 120 407 377 78 127 241 461
311 638 l58 142 96 84 c358 310 560 415 679 352 93 -49 138 -252 120 -541 -12
-196 -61 -458 -113 -604 -20 -58 -19 -87 6 -127 14 -23 28 -34 44 -34 19 0 33
18 80 108 126 236 380 619 556 837 178 221 294 333 362 350 31 8 67 -23 67
-59 0 -14 -38 -123 -84 -243 -186 -486 -246 -743 -217 -919 22 -129 74 -174
198 -174 121 0 227 69 405 263 123 134 161 184 154 202 -9 24 -20 18 -60 -34
-62 -83 -278 -283 -346 -324 -118 -68 -186 -45 -211 71 -30 146 29 418 157
724 112 266 160 430 151 515 -18 170 -189 173 -353 7 -189 -192 -421 -511
-662 -909 -176 -291 -181 -296 -120 -105 83 262 138 524 138 655 0 131 -47
270 -114 338 -66 67 -126 90 -243 95 -101 4 -104 4 -179 -32 -85 -40 -230
-137 -342 -229 -40 -32 -75 -57 -78 -54 -3 2 38 110 90 238 86 211 94 235 79
247 -16 11 -98 15 -135 5z m-321 -955 c-22 -57 -77 -175 -122 -263 -173 -340
-309 -514 -427 -546 -89 -24 -116 52 -58 167 32 65 112 168 289 374 118 137
340 370 353 370 3 0 -12 -46 -35 -102z"/>
</g>
</svg>
